<?xml version="1.0" standalone="no"?>
<!DOCTYPE svg PUBLIC "-//W3C//DTD SVG 1.1//EN" "http://www.w3.org/Graphics/SVG/1.1/DTD/svg11.dtd" >
<svg>
<metadata>
Created by FontForge 20090622 at Mon Nov 12 10:49:14 2018
 By ffonts
Typeface &#194;&#169; (your company). 2010. All Rights Reserved
</metadata>
<defs>
<font id="BadBoys" horiz-adv-x="1139" >
  <font-face 
    font-family="Bad Boys"
    font-weight="400"
    font-stretch="normal"
    units-per-em="2048"
    panose-1="2 0 0 0 0 0 0 0 0 0"
    ascent="1638"
    descent="-410"
    x-height="1496"
    cap-height="1848"
    bbox="9 -399 1069 1920"
    underline-thickness="150"
    underline-position="-142"
    unicode-range="U+0020-U+F005"
  />
<missing-glyph horiz-adv-x="1124" 
 />
    <glyph glyph-name=".notdef" horiz-adv-x="1124" 
 />
    <glyph glyph-name=".null" horiz-adv-x="0" 
 />
    <glyph glyph-name="nonmarkingreturn" horiz-adv-x="569" 
 />
    <glyph glyph-name="space" unicode=" " horiz-adv-x="569" 
 />
    <glyph glyph-name="space" unicode="&#xa0;" horiz-adv-x="569" 
 />
    <glyph glyph-name="exclam" unicode="!" horiz-adv-x="569" 
 />
    <glyph glyph-name="quotedbl" unicode="&#x22;" horiz-adv-x="727" 
 />
    <glyph glyph-name="numbersign" unicode="#" 
 />
    <glyph glyph-name="dollar" unicode="$" 
 />
    <glyph glyph-name="percent" unicode="%" horiz-adv-x="1821" 
 />
    <glyph glyph-name="ampersand" unicode="&#x26;" horiz-adv-x="1366" 
 />
    <glyph glyph-name="quotesingle" unicode="'" horiz-adv-x="391" 
 />
    <glyph glyph-name="parenleft" unicode="(" horiz-adv-x="682" 
 />
    <glyph glyph-name="parenright" unicode=")" horiz-adv-x="682" 
 />
    <glyph glyph-name="asterisk" unicode="*" horiz-adv-x="797" 
 />
    <glyph glyph-name="plus" unicode="+" horiz-adv-x="1196" 
 />
    <glyph glyph-name="comma" unicode="," horiz-adv-x="569" 
 />
    <glyph glyph-name="hyphen" unicode="-" horiz-adv-x="682" 
 />
    <glyph glyph-name="hyphen" unicode="&#xad;" horiz-adv-x="682" 
 />
    <glyph glyph-name="period" unicode="." horiz-adv-x="569" 
 />
    <glyph glyph-name="slash" unicode="/" horiz-adv-x="569" 
 />
    <glyph glyph-name="zero" unicode="0" horiz-adv-x="717" 
d="M295 1564q100 -66 312 -144l68 -20v-4q-60 -37 -60 -100v-1028q0 -66 60 -100v-4q-221 -70 -352 -148l-24 -16h-8q-156 182 -248 196v8q60 18 60 52v1048q0 36 -60 56v8q78 0 248 196h4zM311 1428q-42 -56 -60 -56v-4q44 -23 44 -68v-1028q0 -51 -40 -80v-4q15 0 60 -56
q118 64 140 64v4q-28 27 -28 56v1052q0 39 32 52v4z" />
    <glyph glyph-name="one" unicode="1" horiz-adv-x="702" 
d="M258 1564q142 -92 376 -176v-4q-56 -36 -56 -80v-188l-4 -796q19 -128 92 -128v-4l-144 -96l-92 -92l-44 44v1244q0 51 36 76q-75 27 -144 68h-4q0 -16 -60 -64q44 -19 44 -80v-316l-8 -8q-184 78 -184 180v164q0 26 -56 56v4q80 7 248 196z" />
    <glyph glyph-name="two" unicode="2" horiz-adv-x="706" 
d="M286 1572q119 -80 380 -168v-4q-60 -29 -60 -84v-384q0 -37 40 -68l-380 -260q20 0 20 -28v-280q0 -92 -36 -92v-4q87 -31 148 -68q0 10 60 64q-40 30 -40 56v264q0 77 188 156v-404q0 -44 60 -64v-4q-85 -13 -248 -200q-141 86 -344 156q-36 8 -36 16v4q46 0 60 92
l-4 180v136q0 44 -48 64v8q276 195 340 260q32 65 32 136v256q0 34 36 64q-59 17 -148 68h-4q0 -16 -60 -64q44 -19 44 -80v-316l-8 -8q-184 78 -184 180v164q0 26 -56 56v4q80 7 248 196z" />
    <glyph glyph-name="three" unicode="3" horiz-adv-x="716" 
d="M288 1564q80 -56 272 -124q87 -32 104 -32v-4q-56 -32 -56 -80v-352q0 -73 -108 -104q84 -44 92 -72q24 -25 24 -80v-456q0 -39 60 -56v-8q-82 0 -256 -196q-118 78 -368 164q-12 0 -12 8q60 24 60 104v484q188 -87 188 -184v-312q-10 -60 -36 -60v-4q22 0 148 -68
q46 60 64 60v4q-44 26 -44 60v412q-10 136 -112 136q-17 3 -84 92l4 4h40q112 0 148 60l4 20v408l-116 48q-39 -52 -56 -52v-8q31 0 40 -76v-176q0 -79 -184 -160l-4 4v344q0 38 -56 56v8q72 0 244 188z" />
    <glyph glyph-name="four" unicode="4" horiz-adv-x="731" 
d="M269 1568l4 -4v-224l-4 -584q-14 -40 -32 -40l140 -68l8 -8q0 10 60 64q-40 31 -40 68v752l48 44q136 -154 240 -192v-8q-74 0 -96 -120l4 -108v-372q0 -35 60 -52v-8q-25 0 -60 -28v-672l-8 -8q-188 89 -188 168v332q-42 42 -272 136l-116 40v8q60 23 60 88v468
q0 214 192 328z" />
    <glyph glyph-name="five" unicode="5" horiz-adv-x="717" 
d="M428 1572q136 -172 240 -196v-4q-56 -31 -56 -60v-296l-4 -4v-4q-184 89 -184 152v160q0 26 40 60q-14 0 -60 60q-93 -49 -148 -68v-4q26 0 36 -60v-352q0 -30 -32 -60q53 -18 148 -68q39 72 76 72h156v-8q-20 0 -20 -28v-616q0 -43 56 -80q-228 -76 -384 -168
q-86 111 -180 172l-64 32q60 20 60 64v404q188 -83 188 -152v-260q0 -31 -40 -68q13 0 60 -60q126 68 148 68v4q-36 12 -36 72v412q-85 64 -276 136q-112 39 -112 44q60 31 60 84v368q-15 76 -56 76v12q191 55 384 164z" />
    <glyph glyph-name="six" unicode="6" horiz-adv-x="714" 
d="M426 1572q179 -196 248 -196v-4q-56 -31 -56 -60v-332l-8 -8q-180 88 -180 148v200q0 27 40 60q-14 0 -60 60q-93 -49 -148 -68v-4q32 -13 32 -52v-360q0 -30 -32 -60q358 -164 384 -184v-4q-17 0 -28 -24v-448q0 -38 56 -60v-4l-196 -76q-132 -64 -180 -96
q-163 187 -248 200v4q56 24 56 56v584q-64 15 -64 24v4q45 0 64 84v364q0 48 -60 84q253 84 380 168zM294 760v-508q0 -22 -36 -60q10 -1 64 -60q0 10 136 68q-32 28 -32 76v412q-105 72 -132 72z" />
    <glyph glyph-name="seven" unicode="7" horiz-adv-x="672" 
d="M288 1560q135 -84 372 -164v-4q-56 -28 -56 -76v-376q0 -128 -92 -168q-232 -170 -232 -248v-212q0 -101 92 -120v-4q-94 -51 -184 -132l-52 -56h-4l-40 40v556q0 39 168 192q160 156 160 208v312q8 52 32 52v4q-75 27 -144 68q0 -10 -60 -64q40 -23 40 -56v-212
q0 -71 -180 -156l-4 4v356q0 39 -60 56v8q76 0 244 192z" />
    <glyph glyph-name="eight" unicode="8" horiz-adv-x="718" 
d="M290 1564q80 -56 272 -124q87 -32 104 -32v-4q-56 -32 -56 -80v-352q0 -73 -108 -104q84 -44 92 -72q24 -25 24 -80v-456q0 -39 60 -56v-8q-82 0 -256 -196q-118 78 -368 164q-12 0 -12 8q52 27 52 60v484q0 114 116 148v8q-108 32 -108 108v332q0 38 -56 56v8
q72 0 244 188zM306 1436q-39 -52 -56 -52v-8q31 0 40 -76v-308q16 -76 76 -76q56 26 56 64v408zM290 656v-404q0 -31 -36 -48v-4q22 0 148 -68q46 60 64 60v4q-44 26 -44 60v412q0 101 -72 124q-60 -30 -60 -136z" />
    <glyph glyph-name="nine" unicode="9" horiz-adv-x="715" 
d="M293 1564q119 -80 380 -168v-4q-60 -29 -60 -84v-1044q0 -67 56 -92h4v-8q-84 -12 -356 -148q-14 -16 -32 -16q-136 174 -244 196v8q60 17 60 52v408l8 8q184 -87 184 -164v-232q0 -50 -40 -84l60 -60l144 68v4q-32 13 -32 56v348l-240 120q-84 56 -84 132v448
q0 26 -56 56v4q80 7 248 196zM309 1432q0 -16 -60 -64q44 -19 44 -80v-420q0 -72 120 -112l12 -8v556q0 35 32 60q-75 27 -144 68h-4z" />
    <glyph glyph-name="colon" unicode=":" horiz-adv-x="272" 
d="M228 1194l4 -4v-204q-2 -7 -68 -44q-49 -32 -112 -92h-4v196q0 62 180 148zM228 842l4 -4v-204q-2 -7 -68 -44q-49 -32 -112 -92h-4v196q0 62 180 148z" />
    <glyph glyph-name="semicolon" unicode=";" horiz-adv-x="290" 
d="M236 1195l4 -4v-204q-7 -12 -80 -52l-100 -84h-4v192q0 66 180 152zM236 891q32 -52 32 -144v-24q0 -92 -88 -144q-96 -85 -96 -168l-28 -4h-8l-8 8v24q0 60 44 200l4 32v8q0 51 -32 84v4q118 115 180 124z" />
    <glyph glyph-name="semicolon" unicode="&#x37e;" horiz-adv-x="290" 
d="M236 1195l4 -4v-204q-7 -12 -80 -52l-100 -84h-4v192q0 66 180 152zM236 891q32 -52 32 -144v-24q0 -92 -88 -144q-96 -85 -96 -168l-28 -4h-8l-8 8v24q0 60 44 200l4 32v8q0 51 -32 84v4q118 115 180 124z" />
    <glyph glyph-name="less" unicode="&#x3c;" horiz-adv-x="1196" 
 />
    <glyph glyph-name="equal" unicode="=" horiz-adv-x="515" 
d="M209 994q19 0 132 -64q52 -24 100 -24l44 12l20 -40q-15 -28 -256 -40q-80 -34 -80 -64h-8l-116 144q62 65 136 76h28zM201 670q27 0 136 -64q55 -24 92 -24h16l44 8l16 -40q0 -23 -252 -36q-84 -36 -84 -64h-8l-116 144q76 76 156 76z" />
    <glyph glyph-name="greater" unicode="&#x3e;" horiz-adv-x="1196" 
 />
    <glyph glyph-name="question" unicode="?" horiz-adv-x="714" 
d="M278 1692q122 -81 368 -164l16 -4v-8q-60 -25 -60 -96v-240q0 -99 -108 -156q-232 -164 -232 -272v-308q0 -129 140 -228v616q0 83 192 164v-620q17 -116 88 -116v-8q-102 -36 -240 -184h-4q-36 52 -196 112q-172 120 -172 332v300q0 97 136 196q192 159 204 224v180
q2 64 36 72v4q-67 24 -144 68h-4l-64 -64q44 -19 44 -80v-180q0 -98 -188 -176h-4v360q-15 68 -60 68v8q72 0 252 200zM334 44q188 -93 188 -156v-204h-4q-111 101 -188 136v216l4 4v4z" />
    <glyph glyph-name="at" unicode="@" horiz-adv-x="1091" 
d="M561 1568q276 -192 476 -208v-8q-100 -18 -100 -56v-748q0 -86 120 -100v-8q-26 0 -316 -192q-20 0 -120 -100h-8q0 27 -144 84q-116 96 -116 216v284q0 116 236 308v188h-20q-52 0 -52 -64v-116q0 -51 -132 -112l-4 4v244q14 116 112 116l160 -4h112v-4q-36 -35 -36 -68
v-852h4l64 32v744l4 148l-240 172h-4l-264 -176v-960q0 -121 -60 -152v-4q148 0 328 -168q188 232 488 232l4 -4v-8q-175 -79 -360 -204q-128 -103 -128 -136h-4q-78 89 -192 136q-103 49 -332 112v4l68 28q48 36 48 72v1044q0 52 -104 68v8q156 0 508 204zM493 740v-328
q0 -83 92 -152h4v652q-96 -63 -96 -172z" />
    <glyph glyph-name="A" unicode="A" horiz-adv-x="660" 
d="M211 1504h380v-4q-52 -38 -52 -96v-1112q21 -100 84 -100v-4q-117 -63 -224 -180q-61 63 -180 104q-168 115 -168 292v368q0 156 304 392v248h-36q-52 -6 -52 -48v-172q0 -79 -180 -160l-4 4v292q0 127 92 168zM231 764v-388q0 -137 124 -220v848q-124 -87 -124 -240z
" />
    <glyph glyph-name="B" unicode="B" horiz-adv-x="683" 
d="M129 1912q172 -84 172 -144v-260q96 -70 276 -136q84 -24 84 -32v-4q-41 0 -56 -92l4 -708v-76q0 -254 -156 -348q-127 -57 -168 -88l-24 -24q-151 153 -224 172v8q71 0 88 120v944q0 42 -44 60q-12 0 -12 8v4l56 20v568l4 4v4zM321 1376q0 -8 -56 -60q36 -27 36 -52
v-980l4 -140q124 85 124 228v884q8 52 32 52v4q-55 19 -140 64z" />
    <glyph glyph-name="C" unicode="C" horiz-adv-x="691" 
d="M397 1496q127 -160 228 -184v-4l-4 -4q-52 -20 -52 -64v-296q0 -68 -172 -148l-4 4v448q0 38 40 68q-15 0 -56 56h-4q-62 -37 -136 -64v-4q22 0 32 -44v-880q0 -157 124 -236v484q0 67 176 144v-464q0 -92 68 -124l20 -4v-8q-95 -34 -224 -172q-36 53 -180 104
q-160 116 -160 288v848q0 70 -52 92h-4v8q219 71 360 156z" />
    <glyph glyph-name="D" unicode="D" horiz-adv-x="682" 
d="M557 1912l4 -4v-568q27 -24 56 -24v-8q-56 -19 -56 -52v-964q0 -89 84 -112v-4q-104 -55 -208 -160l-8 -16h-8q-61 62 -180 104q-164 112 -164 300v844q0 65 -52 88h-4v8q219 71 360 156v256q0 77 176 156zM225 1308q23 0 28 -52h4l-4 -24l4 -780v-104q0 -119 124 -204
v1116q0 27 40 60q-10 0 -60 56q-54 -32 -136 -64v-4z" />
    <glyph glyph-name="E" unicode="E" horiz-adv-x="682" 
d="M395 1492q155 -184 228 -184v-8q-56 -16 -56 -60v-328l-8 -8q-168 83 -168 144v200q0 40 40 60q-39 32 -60 60q-62 -36 -136 -64v-4q32 -13 32 -56v-264q0 -84 160 -84h24v-4q-66 -92 -96 -92q-79 0 -96 -124v-304q0 -157 132 -236v576q0 60 172 144l4 -4v-568
q0 -90 80 -108v-8q-74 -20 -220 -168h-4q-45 50 -184 104q-156 109 -156 308v312q0 98 116 136v4q-108 33 -108 104v268q0 70 -52 92h-4v8q217 72 360 156z" />
    <glyph glyph-name="F" unicode="F" horiz-adv-x="631" 
d="M393 1504q168 -184 232 -184v-8q-44 0 -56 -64v-328q-176 69 -176 164v160q0 61 40 76v8q-15 0 -60 52q-69 -40 -128 -60v-4q24 -26 24 -44v-256q0 -104 152 -104h32v-8q-65 -84 -80 -84q-94 0 -108 -124v-936q0 -64 -172 -144l-4 4v1120q0 96 112 136h4v4
q-108 31 -108 104v264q0 67 -56 100q246 84 352 156z" />
    <glyph glyph-name="G" unicode="G" horiz-adv-x="675" 
d="M384 1512q157 -184 232 -184v-8q-56 -22 -56 -40v-1048q0 -87 84 -108v-8q-81 -39 -88 -56v-128q0 -165 -300 -324l-24 32v12q148 77 148 200v204q-6 15 -152 80q-152 115 -152 300l4 436v364q0 87 -48 112h-8v8q221 74 360 156zM228 1320q28 -17 28 -52v-868
q0 -154 124 -232v1104q0 34 40 56q-54 43 -56 60l-136 -64v-4z" />
    <glyph glyph-name="H" unicode="H" horiz-adv-x="681" 
d="M127 1912q172 -83 172 -144v-260q90 -74 360 -160v-12q-56 -20 -56 -84v-960q0 -185 -176 -292l-4 4v352l4 880l-4 20q12 52 32 52q-8 11 -100 48l-32 20q-47 -52 -60 -52v-4q40 -29 40 -84v-1192l-48 -44q-97 123 -208 168l-12 12v4q84 21 84 108v968q0 34 -56 48v8
l56 20v568z" />
    <glyph glyph-name="I" unicode="I" horiz-adv-x="338" 
d="M60 1848q188 -91 188 -156v-204h-4q-98 89 -188 140v212l4 4v4zM60 1500q180 -78 180 -144v-1048q12 -124 88 -124v-4q-112 -62 -200 -152l-20 -28h-12q0 9 -36 40v1460z" />
    <glyph glyph-name="J" unicode="J" horiz-adv-x="626" 
d="M320 1864q188 -91 188 -156v-204h-4q-81 78 -188 140v212l4 4v4zM324 1508q180 -86 180 -148v-1424q0 -114 92 -132v-8q-97 -32 -232 -180q-40 56 -196 116q-156 119 -156 288v496q184 -76 184 -160v-388q0 -108 124 -200v1732l4 4v4z" />
    <glyph glyph-name="K" unicode="K" horiz-adv-x="678" 
d="M123 1910q172 -84 172 -144v-596q80 -56 100 -56q28 3 28 12v344l4 4v4q172 -84 172 -144v-188l-56 -40q-24 -32 -24 -52h4l132 -44v-4q-56 -36 -56 -96l4 -596v-68q0 -266 -176 -360l-4 4v1028q0 29 28 56v4l-136 60q-42 -52 -56 -52v-4q36 -27 36 -60v-540l4 -348
l-44 -36q-151 153 -224 172v8q71 0 88 120v608q-10 64 -60 64v8q60 15 60 28v896l4 4v4z" />
    <glyph glyph-name="L" unicode="L" horiz-adv-x="325" 
d="M95 1904q172 -79 172 -148v-1720q-28 -28 -28 -36h-8q-135 141 -220 172v4q68 0 80 120v1600l4 4v4z" />
    <glyph glyph-name="M" unicode="M" horiz-adv-x="1012" 
d="M304 1504h4q52 -37 196 -100l104 100h4q118 -80 356 -156v-4q-56 -31 -56 -96v-952q0 -184 -176 -296l-4 4v1236q0 48 32 76q-16 0 -140 64q-16 -18 -16 -144v-732q0 -180 -176 -292l-4 4v1092q0 31 -108 68q0 -11 -52 -56q40 -22 40 -88v-1184l-44 -44
q-148 152 -224 172v4q0 8 20 8q64 41 64 96v976q0 32 -56 52v4q52 0 236 188z" />
    <glyph glyph-name="N" unicode="N" horiz-adv-x="691" 
d="M295 1500h4q108 -73 340 -152l16 -4v-4q-56 -28 -56 -112v-940q0 -174 -168 -288h-12v340l4 892l-4 20q5 33 32 60l-140 60q0 -11 -52 -56q40 -22 40 -88v-1184l-44 -44q-148 152 -224 172v4q0 8 20 8q64 41 64 96v976q0 32 -56 52v4q52 0 236 188z" />
    <glyph glyph-name="O" unicode="O" horiz-adv-x="682" 
d="M388 1496q163 -172 200 -172l36 -16v-4q-56 -20 -56 -56v-948q0 -94 84 -120v-8q-87 -29 -220 -172q-40 50 -192 112q-152 116 -152 284v844q0 66 -52 92h-4v8q237 76 356 156zM232 1308v-4q24 0 32 -52v-860q0 -166 120 -244h4l4 1120q0 9 36 48q-13 0 -56 56
q-116 -62 -140 -64z" />
    <glyph glyph-name="P" unicode="P" horiz-adv-x="672" 
d="M295 1504h4q107 -72 340 -152l16 -4v-8q-56 -21 -56 -84v-840q0 -213 -192 -316q-85 -31 -112 -60v-140q0 -182 -176 -292l-4 4v400l-84 44v12q69 0 84 108v1084q0 32 -56 52v4q109 33 220 176zM311 1376q0 -9 -52 -56q36 -24 36 -60v-1108q124 85 124 220v884
q0 43 32 56v4q-13 0 -136 60h-4z" />
    <glyph glyph-name="Q" unicode="Q" horiz-adv-x="727" 
d="M339 64h8v-8h-8v8zM383 1502q163 -172 200 -172l36 -16v-4q-56 -20 -56 -56v-1020q0 -99 88 -116v-4q-44 -114 -176 -188l-44 -20v-4h4q50 12 108 12q47 0 144 -16v-8h-40q-151 0 -344 -116h-4q-122 47 -124 56v4q143 52 212 164l12 36q-44 32 -184 96q-132 122 -132 272
v844q0 66 -52 92h-4v8q237 76 356 156zM227 1314v-4q24 0 32 -52v-860q0 -166 120 -244h4l4 1116q0 15 36 52q-13 0 -56 56q-116 -62 -140 -64zM699 -106h8v-8h-8v8z" />
    <glyph glyph-name="R" unicode="R" horiz-adv-x="664" 
d="M293 1500h4q108 -73 340 -152l16 -4v-4q-56 -28 -56 -112v-252q0 -185 -176 -292l-4 4v104l4 476q3 18 28 44l-140 60q0 -11 -52 -56q40 -22 40 -88v-1184l-44 -44q-148 152 -224 172v4q0 8 20 8q64 41 64 96v976q0 32 -56 52v4q52 0 236 188z" />
    <glyph glyph-name="S" unicode="S" horiz-adv-x="663" 
d="M401 1500q158 -178 232 -184v-8q-56 -18 -56 -60v-328l-4 -4v-4q-172 79 -172 152v188q0 38 40 68q-9 0 -60 56q-78 -44 -132 -64v-4q28 -17 28 -52v-160q0 -78 196 -228q120 -95 120 -184v-276q0 -226 -208 -324q-72 -21 -136 -84q-114 131 -220 172v8q80 18 80 108v564
l4 4v4q172 -84 172 -144v-576q132 77 132 240v244q0 121 -284 308q-32 46 -32 100v228q-15 76 -56 76v8q229 74 332 144z" />
    <glyph glyph-name="T" unicode="T" horiz-adv-x="660" 
d="M97 1920q168 -79 168 -148v-408h304l4 -4h4q-111 -176 -308 -176v-844q0 -106 120 -192v484q0 65 176 144l4 -4v-480q14 -108 84 -108v-4q-115 -61 -212 -168l-12 -12q-24 47 -184 108q-160 103 -160 344v88l4 712q0 50 -56 88v4l56 16v552z" />
    <glyph glyph-name="U" unicode="U" horiz-adv-x="676" 
d="M32 1496q145 0 212 -152q16 -45 16 -96v-856q0 -165 120 -244h4l4 1260v88h8q125 -160 224 -184v-4q-56 -30 -56 -56v-952q0 -93 84 -120v-8q-77 -23 -224 -172q-8 37 -196 116q-144 121 -144 280v1004q-11 88 -52 88v8z" />
    <glyph glyph-name="V" unicode="V" horiz-adv-x="651" 
d="M32 1496q145 0 212 -152q16 -45 16 -96v-860q0 -172 84 -236q44 57 44 188v1156h8q125 -160 224 -184v-4q-56 -30 -56 -56v-956q0 -132 -188 -296h-4q-157 90 -208 144q-80 100 -80 256v1000q-11 88 -52 88v8z" />
    <glyph glyph-name="W" unicode="W" horiz-adv-x="990" 
d="M37 1504q145 0 212 -152q16 -45 16 -96v-860q0 -171 88 -216q40 54 40 168v836q0 80 -52 96v8h4q138 0 208 -152q20 -56 20 -232l-4 -544q0 -129 88 -184q40 55 40 180v864l-4 280h4q165 -180 216 -180l4 -4q12 0 12 -8q-56 -18 -56 -60v-952q16 -112 84 -112v-4
q-139 -79 -276 -180l-164 100q-70 -42 -136 -96h-4q-185 106 -224 168q-64 94 -64 232v1004q-11 88 -52 88v8z" />
    <glyph glyph-name="X" unicode="X" horiz-adv-x="634" 
d="M270 1504l4 -4v-392q0 -59 56 -112q88 84 88 156v348h8q168 -109 168 -304v-104q0 -90 -108 -168l-36 -36q140 -112 140 -192v-376q0 -222 -172 -320h-4v608q0 105 -88 172q-48 -59 -48 -112v-664h-4q-131 143 -248 168v4q76 48 76 96v472q0 91 88 144q-92 64 -92 128
v316q0 49 -56 84q128 44 228 88z" />
    <glyph glyph-name="Y" unicode="Y" horiz-adv-x="676" 
d="M30 1497q145 0 212 -152q16 -45 16 -96v-856q0 -165 120 -244h4l4 1240v108h8q125 -160 224 -184v-4q-56 -30 -56 -56v-1076q0 -96 88 -120v-4l-88 -48v-104q0 -92 84 -120v-8q-80 -25 -224 -172q0 42 -216 116q-124 47 -124 200v220l4 4v4q172 -81 172 -140v-104
q0 -122 68 -140l60 -16v288q-7 20 -152 80q-152 117 -152 284v1004q-11 88 -52 88v8z" />
    <glyph glyph-name="Z" unicode="Z" horiz-adv-x="656" 
d="M259 1500q106 -72 352 -156v-8q-52 -19 -52 -84v-216q0 -71 -96 -208q-216 -352 -220 -476q0 -121 128 -212h4v400q0 60 172 144l4 -4v-396q0 -66 52 -96l28 -8v-8q-73 -19 -224 -172q-36 53 -180 104q-160 114 -160 300q0 152 288 632q28 49 28 72v156q0 19 28 48
l-136 64q0 -10 -56 -60q31 0 40 -76v-164q0 -92 -176 -164l-4 4v352q0 21 -56 40v8q70 0 236 184z" />
    <glyph glyph-name="bracketleft" unicode="[" horiz-adv-x="569" 
 />
    <glyph glyph-name="backslash" unicode="\" horiz-adv-x="569" 
 />
    <glyph glyph-name="bracketright" unicode="]" horiz-adv-x="569" 
 />
    <glyph glyph-name="asciicircum" unicode="^" horiz-adv-x="961" 
 />
    <glyph glyph-name="underscore" unicode="_" 
 />
    <glyph glyph-name="grave" unicode="`" horiz-adv-x="682" 
 />
    <glyph glyph-name="a" unicode="a" horiz-adv-x="631" 
d="M194 1504h380v-4q-52 -38 -52 -96v-1112q21 -100 84 -100v-4q-117 -63 -224 -180q-61 63 -180 104q-168 115 -168 292v368q0 156 304 392v248h-36q-52 -6 -52 -48v-172q0 -79 -180 -160l-4 4v292q0 127 92 168zM214 764v-388q0 -137 124 -220v848q-124 -87 -124 -240z
" />
    <glyph glyph-name="b" unicode="b" horiz-adv-x="664" 
d="M117 1912q172 -84 172 -144v-260q96 -70 276 -136q84 -24 84 -32v-4q-41 0 -56 -92l4 -708v-76q0 -254 -156 -348q-127 -57 -168 -88l-24 -24q-151 153 -224 172v8q71 0 88 120v944q0 42 -44 60q-12 0 -12 8v4l56 20v568l4 4v4zM309 1376q0 -8 -56 -60q36 -27 36 -52
v-980l4 -140q124 85 124 228v884q8 52 32 52v4q-55 19 -140 64z" />
    <glyph glyph-name="c" unicode="c" horiz-adv-x="670" 
d="M386 1496q127 -160 228 -184v-4l-4 -4q-52 -20 -52 -64v-296q0 -68 -172 -148l-4 4v448q0 38 40 68q-15 0 -56 56h-4q-62 -37 -136 -64v-4q22 0 32 -44v-880q0 -157 124 -236v484q0 67 176 144v-464q0 -92 68 -124l20 -4v-8q-95 -34 -224 -172q-36 53 -180 104
q-160 116 -160 288v848q0 70 -52 92h-4v8q219 71 360 156z" />
    <glyph glyph-name="d" unicode="d" horiz-adv-x="664" 
d="M550 1912l4 -4v-568q27 -24 56 -24v-8q-56 -19 -56 -52v-964q0 -89 84 -112v-4q-104 -55 -208 -160l-8 -16h-8q-61 62 -180 104q-164 112 -164 300v844q0 65 -52 88h-4v8q219 71 360 156v256q0 77 176 156zM218 1308q23 0 28 -52h4l-4 -24l4 -780v-104q0 -119 124 -204
v1116q0 27 40 60q-10 0 -60 56q-54 -32 -136 -64v-4z" />
    <glyph glyph-name="e" unicode="e" horiz-adv-x="663" 
d="M386 1492q155 -184 228 -184v-8q-56 -16 -56 -60v-328l-8 -8q-168 83 -168 144v200q0 40 40 60q-39 32 -60 60q-62 -36 -136 -64v-4q32 -13 32 -56v-264q0 -84 160 -84h24v-4q-66 -92 -96 -92q-79 0 -96 -124v-304q0 -157 132 -236v576q0 60 172 144l4 -4v-568
q0 -90 80 -108v-8q-74 -20 -220 -168h-4q-45 50 -184 104q-156 109 -156 308v312q0 98 116 136v4q-108 33 -108 104v268q0 70 -52 92h-4v8q217 72 360 156z" />
    <glyph glyph-name="f" unicode="f" horiz-adv-x="619" 
d="M383 1504q168 -184 232 -184v-8q-44 0 -56 -64v-328q-176 69 -176 164v160q0 61 40 76v8q-15 0 -60 52q-69 -40 -128 -60v-4q24 -26 24 -44v-256q0 -104 152 -104h32v-8q-65 -84 -80 -84q-94 0 -108 -124v-936q0 -64 -172 -144l-4 4v1120q0 96 112 136h4v4
q-108 31 -108 104v264q0 67 -56 100q246 84 352 156z" />
    <glyph glyph-name="g" unicode="g" horiz-adv-x="661" 
d="M378 1512q157 -184 232 -184v-8q-56 -22 -56 -40v-1048q0 -87 84 -108v-8q-81 -39 -88 -56v-128q0 -165 -300 -324l-24 32v12q148 77 148 200v204q-6 15 -152 80q-152 115 -152 300l4 436v364q0 87 -48 112h-8v8q221 74 360 156zM222 1320q28 -17 28 -52v-868
q0 -154 124 -232v1104q0 34 40 56q-54 43 -56 60l-136 -64v-4z" />
    <glyph glyph-name="h" unicode="h" horiz-adv-x="666" 
d="M118 1912q172 -83 172 -144v-260q90 -74 360 -160v-12q-56 -20 -56 -84v-960q0 -185 -176 -292l-4 4v352l4 880l-4 20q12 52 32 52q-8 11 -100 48l-32 20q-47 -52 -60 -52v-4q40 -29 40 -84v-1192l-48 -44q-97 123 -208 168l-12 12v4q84 21 84 108v968q0 34 -56 48v8
l56 20v568z" />
    <glyph glyph-name="i" unicode="i" horiz-adv-x="321" 
d="M46 1848q188 -91 188 -156v-204h-4q-98 89 -188 140v212l4 4v4zM46 1500q180 -78 180 -144v-1048q12 -124 88 -124v-4q-112 -62 -200 -152l-20 -28h-12q0 9 -36 40v1460z" />
    <glyph glyph-name="j" unicode="j" horiz-adv-x="616" 
d="M317 1864q188 -91 188 -156v-204h-4q-81 78 -188 140v212l4 4v4zM321 1508q180 -86 180 -148v-1424q0 -114 92 -132v-8q-97 -32 -232 -180q-40 56 -196 116q-156 119 -156 288v496q184 -76 184 -160v-388q0 -108 124 -200v1732l4 4v4z" />
    <glyph glyph-name="k" unicode="k" horiz-adv-x="664" 
d="M115 1910q172 -84 172 -144v-596q80 -56 100 -56q28 3 28 12v344l4 4v4q172 -84 172 -144v-188l-56 -40q-24 -32 -24 -52h4l132 -44v-4q-56 -36 -56 -96l4 -596v-68q0 -266 -176 -360l-4 4v1028q0 29 28 56v4l-136 60q-42 -52 -56 -52v-4q36 -27 36 -60v-540l4 -348
l-44 -36q-151 153 -224 172v8q71 0 88 120v608q-10 64 -60 64v8q60 15 60 28v896l4 4v4z" />
    <glyph glyph-name="l" unicode="l" horiz-adv-x="310" 
d="M93 1904q172 -79 172 -148v-1720q-28 -28 -28 -36h-8q-135 141 -220 172v4q68 0 80 120v1600l4 4v4z" />
    <glyph glyph-name="m" unicode="m" horiz-adv-x="993" 
d="M295 1504h4q52 -37 196 -100l104 100h4q118 -80 356 -156v-4q-56 -31 -56 -96v-952q0 -184 -176 -296l-4 4v1236q0 48 32 76q-16 0 -140 64q-16 -18 -16 -144v-732q0 -180 -176 -292l-4 4v1092q0 31 -108 68q0 -11 -52 -56q40 -22 40 -88v-1184l-44 -44
q-148 152 -224 172v4q0 8 20 8q64 41 64 96v976q0 32 -56 52v4q52 0 236 188z" />
    <glyph glyph-name="n" unicode="n" horiz-adv-x="678" 
d="M289 1500h4q108 -73 340 -152l16 -4v-4q-56 -28 -56 -112v-940q0 -174 -168 -288h-12v340l4 892l-4 20q5 33 32 60l-140 60q0 -11 -52 -56q40 -22 40 -88v-1184l-44 -44q-148 152 -224 172v4q0 8 20 8q64 41 64 96v976q0 32 -56 52v4q52 0 236 188z" />
    <glyph glyph-name="o" unicode="o" horiz-adv-x="671" 
d="M382 1496q163 -172 200 -172l36 -16v-4q-56 -20 -56 -56v-948q0 -94 84 -120v-8q-87 -29 -220 -172q-40 50 -192 112q-152 116 -152 284v844q0 66 -52 92h-4v8q237 76 356 156zM226 1308v-4q24 0 32 -52v-860q0 -166 120 -244h4l4 1120q0 9 36 48q-13 0 -56 56
q-116 -62 -140 -64z" />
    <glyph glyph-name="p" unicode="p" horiz-adv-x="664" 
d="M290 1504h4q107 -72 340 -152l16 -4v-8q-56 -21 -56 -84v-840q0 -213 -192 -316q-85 -31 -112 -60v-140q0 -182 -176 -292l-4 4v400l-84 44v12q69 0 84 108v1084q0 32 -56 52v4q109 33 220 176zM306 1376q0 -9 -52 -56q36 -24 36 -60v-1108q124 85 124 220v884
q0 43 32 56v4q-13 0 -136 60h-4z" />
    <glyph glyph-name="q" unicode="q" horiz-adv-x="720" 
d="M335 64h8v-8h-8v8zM379 1502q163 -172 200 -172l36 -16v-4q-56 -20 -56 -56v-1020q0 -99 88 -116v-4q-44 -114 -176 -188l-44 -20v-4h4q50 12 108 12q47 0 144 -16v-8h-40q-151 0 -344 -116h-4q-122 47 -124 56v4q143 52 212 164l12 36q-44 32 -184 96q-132 122 -132 272
v844q0 66 -52 92h-4v8q237 76 356 156zM223 1314v-4q24 0 32 -52v-860q0 -166 120 -244h4l4 1116q0 15 36 52q-13 0 -56 56q-116 -62 -140 -64zM695 -106h8v-8h-8v8z" />
    <glyph glyph-name="r" unicode="r" horiz-adv-x="658" 
d="M289 1500h4q108 -73 340 -152l16 -4v-4q-56 -28 -56 -112v-252q0 -185 -176 -292l-4 4v104l4 476q3 18 28 44l-140 60q0 -11 -52 -56q40 -22 40 -88v-1184l-44 -44q-148 152 -224 172v4q0 8 20 8q64 41 64 96v976q0 32 -56 52v4q52 0 236 188z" />
    <glyph glyph-name="s" unicode="s" horiz-adv-x="655" 
d="M397 1500q158 -178 232 -184v-8q-56 -18 -56 -60v-328l-4 -4v-4q-172 79 -172 152v188q0 38 40 68q-9 0 -60 56q-78 -44 -132 -64v-4q28 -17 28 -52v-160q0 -78 196 -228q120 -95 120 -184v-276q0 -226 -208 -324q-72 -21 -136 -84q-114 131 -220 172v8q80 18 80 108v564
l4 4v4q172 -84 172 -144v-576q132 77 132 240v244q0 121 -284 308q-32 46 -32 100v228q-15 76 -56 76v8q229 74 332 144z" />
    <glyph glyph-name="t" unicode="t" horiz-adv-x="656" 
d="M93 1920q168 -79 168 -148v-408h304l4 -4h4q-111 -176 -308 -176v-844q0 -106 120 -192v484q0 65 176 144l4 -4v-480q14 -108 84 -108v-4q-115 -61 -212 -168l-12 -12q-24 47 -184 108q-160 103 -160 344v88l4 712q0 50 -56 88v4l56 16v552z" />
    <glyph glyph-name="u" unicode="u" horiz-adv-x="669" 
d="M28 1496q145 0 212 -152q16 -45 16 -96v-856q0 -165 120 -244h4l4 1260v88h8q125 -160 224 -184v-4q-56 -30 -56 -56v-952q0 -93 84 -120v-8q-77 -23 -224 -172q-8 37 -196 116q-144 121 -144 280v1004q-11 88 -52 88v8z" />
    <glyph glyph-name="v" unicode="v" horiz-adv-x="644" 
d="M28 1496q145 0 212 -152q16 -45 16 -96v-860q0 -172 84 -236q44 57 44 188v1156h8q125 -160 224 -184v-4q-56 -30 -56 -56v-956q0 -132 -188 -296h-4q-157 90 -208 144q-80 100 -80 256v1000q-11 88 -52 88v8z" />
    <glyph glyph-name="w" unicode="w" horiz-adv-x="985" 
d="M34 1504q145 0 212 -152q16 -45 16 -96v-860q0 -171 88 -216q40 54 40 168v836q0 80 -52 96v8h4q138 0 208 -152q20 -56 20 -232l-4 -544q0 -129 88 -184q40 55 40 180v864l-4 280h4q165 -180 216 -180l4 -4q12 0 12 -8q-56 -18 -56 -60v-952q16 -112 84 -112v-4
q-139 -79 -276 -180l-164 100q-70 -42 -136 -96h-4q-185 106 -224 168q-64 94 -64 232v1004q-11 88 -52 88v8z" />
    <glyph glyph-name="x" unicode="x" horiz-adv-x="631" 
d="M269 1504l4 -4v-392q0 -59 56 -112q88 84 88 156v348h8q168 -109 168 -304v-104q0 -90 -108 -168l-36 -36q140 -112 140 -192v-376q0 -222 -172 -320h-4v608q0 105 -88 172q-48 -59 -48 -112v-664h-4q-131 143 -248 168v4q76 48 76 96v472q0 91 88 144q-92 64 -92 128
v316q0 49 -56 84q128 44 228 88z" />
    <glyph glyph-name="y" unicode="y" horiz-adv-x="674" 
d="M29 1497q145 0 212 -152q16 -45 16 -96v-856q0 -165 120 -244h4l4 1240v108h8q125 -160 224 -184v-4q-56 -30 -56 -56v-1076q0 -96 88 -120v-4l-88 -48v-104q0 -92 84 -120v-8q-80 -25 -224 -172q0 42 -216 116q-124 47 -124 200v220l4 4v4q172 -81 172 -140v-104
q0 -122 68 -140l60 -16v288q-7 20 -152 80q-152 117 -152 284v1004q-11 88 -52 88v8z" />
    <glyph glyph-name="z" unicode="z" horiz-adv-x="654" 
d="M258 1500q106 -72 352 -156v-8q-52 -19 -52 -84v-216q0 -71 -96 -208q-216 -352 -220 -476q0 -121 128 -212h4v400q0 60 172 144l4 -4v-396q0 -66 52 -96l28 -8v-8q-73 -19 -224 -172q-36 53 -180 104q-160 114 -160 300q0 152 288 632q28 49 28 72v156q0 19 28 48
l-136 64q0 -10 -56 -60q31 0 40 -76v-164q0 -92 -176 -164l-4 4v352q0 21 -56 40v8q70 0 236 184z" />
    <glyph glyph-name="braceleft" unicode="{" horiz-adv-x="684" 
 />
    <glyph glyph-name="bar" unicode="|" horiz-adv-x="532" 
 />
    <glyph glyph-name="braceright" unicode="}" horiz-adv-x="684" 
 />
    <glyph glyph-name="asciitilde" unicode="~" horiz-adv-x="492" 
d="M192 778q19 0 132 -64q52 -24 100 -24l44 12l20 -40q-15 -28 -256 -40q-80 -34 -80 -64h-8l-116 144q62 65 136 76h28z" />
    <glyph glyph-name="Adieresis" unicode="&#xc4;" horiz-adv-x="1366" 
 />
    <glyph glyph-name="Aring" unicode="&#xc5;" horiz-adv-x="1366" 
 />
    <glyph glyph-name="Ccedilla" unicode="&#xc7;" horiz-adv-x="1479" 
 />
    <glyph glyph-name="Eacute" unicode="&#xc9;" horiz-adv-x="1366" 
 />
    <glyph glyph-name="Ntilde" unicode="&#xd1;" horiz-adv-x="1479" 
 />
    <glyph glyph-name="Odieresis" unicode="&#xd6;" horiz-adv-x="1593" 
 />
    <glyph glyph-name="Udieresis" unicode="&#xdc;" horiz-adv-x="1479" 
 />
    <glyph glyph-name="aacute" unicode="&#xe1;" 
 />
    <glyph glyph-name="agrave" unicode="&#xe0;" 
 />
    <glyph glyph-name="acircumflex" unicode="&#xe2;" 
 />
    <glyph glyph-name="adieresis" unicode="&#xe4;" 
 />
    <glyph glyph-name="atilde" unicode="&#xe3;" 
 />
    <glyph glyph-name="aring" unicode="&#xe5;" 
 />
    <glyph glyph-name="ccedilla" unicode="&#xe7;" horiz-adv-x="1024" 
 />
    <glyph glyph-name="eacute" unicode="&#xe9;" 
 />
    <glyph glyph-name="egrave" unicode="&#xe8;" 
 />
    <glyph glyph-name="ecircumflex" unicode="&#xea;" 
 />
    <glyph glyph-name="edieresis" unicode="&#xeb;" 
 />
    <glyph glyph-name="iacute" unicode="&#xed;" horiz-adv-x="569" 
 />
    <glyph glyph-name="igrave" unicode="&#xec;" horiz-adv-x="569" 
 />
    <glyph glyph-name="icircumflex" unicode="&#xee;" horiz-adv-x="569" 
 />
    <glyph glyph-name="idieresis" unicode="&#xef;" horiz-adv-x="569" 
 />
    <glyph glyph-name="ntilde" unicode="&#xf1;" 
 />
    <glyph glyph-name="oacute" unicode="&#xf3;" 
 />
    <glyph glyph-name="ograve" unicode="&#xf2;" 
 />
    <glyph glyph-name="ocircumflex" unicode="&#xf4;" 
 />
    <glyph glyph-name="odieresis" unicode="&#xf6;" 
 />
    <glyph glyph-name="otilde" unicode="&#xf5;" 
 />
    <glyph glyph-name="uacute" unicode="&#xfa;" 
 />
    <glyph glyph-name="ugrave" unicode="&#xf9;" 
 />
    <glyph glyph-name="ucircumflex" unicode="&#xfb;" 
 />
    <glyph glyph-name="udieresis" unicode="&#xfc;" 
 />
    <glyph glyph-name="dagger" unicode="&#x2020;" 
 />
    <glyph glyph-name="degree" unicode="&#xb0;" horiz-adv-x="819" 
 />
    <glyph glyph-name="cent" unicode="&#xa2;" 
 />
    <glyph glyph-name="sterling" unicode="&#xa3;" 
 />
    <glyph glyph-name="section" unicode="&#xa7;" 
 />
    <glyph glyph-name="bullet" unicode="&#x2022;" horiz-adv-x="717" 
 />
    <glyph glyph-name="paragraph" unicode="&#xb6;" horiz-adv-x="1100" 
 />
    <glyph glyph-name="germandbls" unicode="&#xdf;" horiz-adv-x="1251" 
 />
    <glyph glyph-name="registered" unicode="&#xae;" horiz-adv-x="1509" 
 />
    <glyph glyph-name="copyright" unicode="&#xa9;" horiz-adv-x="1509" 
 />
    <glyph glyph-name="trademark" unicode="&#x2122;" horiz-adv-x="2048" 
 />
    <glyph glyph-name="acute" unicode="&#xb4;" horiz-adv-x="682" 
 />
    <glyph glyph-name="dieresis" unicode="&#xa8;" horiz-adv-x="682" 
 />
    <glyph glyph-name="notequal" unicode="&#x2260;" horiz-adv-x="1124" 
 />
    <glyph glyph-name="AE" unicode="&#xc6;" horiz-adv-x="2048" 
 />
    <glyph glyph-name="Oslash" unicode="&#xd8;" horiz-adv-x="1593" 
 />
    <glyph glyph-name="infinity" unicode="&#x221e;" horiz-adv-x="1460" 
 />
    <glyph glyph-name="plusminus" unicode="&#xb1;" horiz-adv-x="1124" 
 />
    <glyph glyph-name="lessequal" unicode="&#x2264;" horiz-adv-x="1124" 
 />
    <glyph glyph-name="greaterequal" unicode="&#x2265;" horiz-adv-x="1124" 
 />
    <glyph glyph-name="yen" unicode="&#xa5;" 
 />
    <glyph glyph-name="mu" unicode="&#xb5;" horiz-adv-x="1180" 
 />
    <glyph glyph-name="partialdiff" unicode="&#x2202;" horiz-adv-x="1012" 
 />
    <glyph glyph-name="summation" unicode="&#x2211;" horiz-adv-x="1460" 
 />
    <glyph glyph-name="product" unicode="&#x220f;" horiz-adv-x="1686" 
 />
    <glyph glyph-name=".notdef.001" horiz-adv-x="1114" 
d="M45 0v1280h1024v-1280h-1024zM77 32h960v1216h-960v-1216z" />
    <glyph glyph-name="integral" unicode="&#x222b;" horiz-adv-x="561" 
 />
    <glyph glyph-name="ordfeminine" unicode="&#xaa;" horiz-adv-x="758" 
 />
    <glyph glyph-name="ordmasculine" unicode="&#xba;" horiz-adv-x="748" 
 />
    <glyph glyph-name="Omega" unicode="&#x2126;" horiz-adv-x="1573" 
 />
    <glyph glyph-name="ae" unicode="&#xe6;" horiz-adv-x="1821" 
 />
    <glyph glyph-name="oslash" unicode="&#xf8;" horiz-adv-x="1251" 
 />
    <glyph glyph-name="questiondown" unicode="&#xbf;" horiz-adv-x="1251" 
 />
    <glyph glyph-name="exclamdown" unicode="&#xa1;" horiz-adv-x="682" 
 />
    <glyph glyph-name="logicalnot" unicode="&#xac;" horiz-adv-x="1196" 
 />
    <glyph glyph-name="radical" unicode="&#x221a;" horiz-adv-x="1124" 
 />
    <glyph glyph-name="florin" unicode="&#x192;" 
 />
    <glyph glyph-name="approxequal" unicode="&#x2248;" horiz-adv-x="1124" 
 />
    <glyph glyph-name="Delta" unicode="&#x2206;" horiz-adv-x="1253" 
 />
    <glyph glyph-name="guillemotleft" unicode="&#xab;" 
 />
    <glyph glyph-name="guillemotright" unicode="&#xbb;" 
 />
    <glyph glyph-name="ellipsis" unicode="&#x2026;" horiz-adv-x="2048" 
 />
    <glyph glyph-name="Agrave" unicode="&#xc0;" horiz-adv-x="1366" 
 />
    <glyph glyph-name="Atilde" unicode="&#xc3;" horiz-adv-x="1366" 
 />
    <glyph glyph-name="Otilde" unicode="&#xd5;" horiz-adv-x="1593" 
 />
    <glyph glyph-name="OE" unicode="&#x152;" horiz-adv-x="2048" 
 />
    <glyph glyph-name="oe" unicode="&#x153;" horiz-adv-x="1933" 
 />
    <glyph glyph-name="endash" unicode="&#x2013;" 
 />
    <glyph glyph-name="emdash" unicode="&#x2014;" horiz-adv-x="2048" 
 />
    <glyph glyph-name="quotedblleft" unicode="&#x201c;" horiz-adv-x="682" 
 />
    <glyph glyph-name="quotedblright" unicode="&#x201d;" horiz-adv-x="682" 
 />
    <glyph glyph-name="quoteleft" unicode="&#x2018;" horiz-adv-x="455" 
 />
    <glyph glyph-name="quoteright" unicode="&#x2019;" horiz-adv-x="455" 
 />
    <glyph glyph-name="divide" unicode="&#xf7;" horiz-adv-x="1124" 
 />
    <glyph glyph-name="lozenge" unicode="&#x25ca;" horiz-adv-x="1012" 
 />
    <glyph glyph-name="ydieresis" unicode="&#xff;" horiz-adv-x="1024" 
 />
    <glyph glyph-name="Ydieresis" unicode="&#x178;" horiz-adv-x="1366" 
 />
    <glyph glyph-name="fraction" unicode="&#x2044;" horiz-adv-x="342" 
 />
    <glyph glyph-name="fraction" unicode="&#x2215;" horiz-adv-x="342" 
 />
    <glyph glyph-name="Euro" unicode="&#x20ac;" 
 />
    <glyph glyph-name="guilsinglleft" unicode="&#x2039;" horiz-adv-x="682" 
 />
    <glyph glyph-name="guilsinglright" unicode="&#x203a;" horiz-adv-x="682" 
 />
    <glyph glyph-name="uniF001" unicode="&#xf001;" horiz-adv-x="1024" 
 />
    <glyph glyph-name="uniF001" unicode="&#xfb01;" horiz-adv-x="1024" 
 />
    <glyph glyph-name="uniF002" unicode="&#xf002;" horiz-adv-x="1024" 
 />
    <glyph glyph-name="uniF002" unicode="&#xfb02;" horiz-adv-x="1024" 
 />
    <glyph glyph-name="daggerdbl" unicode="&#x2021;" 
 />
    <glyph glyph-name="periodcentered" unicode="&#xb7;" horiz-adv-x="569" 
 />
    <glyph glyph-name="periodcentered" unicode="&#x2219;" horiz-adv-x="569" 
 />
    <glyph glyph-name="quotesinglbase" unicode="&#x201a;" horiz-adv-x="455" 
 />
    <glyph glyph-name="quotedblbase" unicode="&#x201e;" horiz-adv-x="682" 
 />
    <glyph glyph-name="perthousand" unicode="&#x2030;" horiz-adv-x="2048" 
 />
    <glyph glyph-name="Acircumflex" unicode="&#xc2;" horiz-adv-x="1366" 
 />
    <glyph glyph-name="Ecircumflex" unicode="&#xca;" horiz-adv-x="1366" 
 />
    <glyph glyph-name="Aacute" unicode="&#xc1;" horiz-adv-x="1366" 
 />
    <glyph glyph-name="Edieresis" unicode="&#xcb;" horiz-adv-x="1366" 
 />
    <glyph glyph-name="Egrave" unicode="&#xc8;" horiz-adv-x="1366" 
 />
    <glyph glyph-name="Iacute" unicode="&#xcd;" horiz-adv-x="569" 
 />
    <glyph glyph-name="Icircumflex" unicode="&#xce;" horiz-adv-x="569" 
 />
    <glyph glyph-name="Idieresis" unicode="&#xcf;" horiz-adv-x="569" 
 />
    <glyph glyph-name="Igrave" unicode="&#xcc;" horiz-adv-x="569" 
 />
    <glyph glyph-name="Oacute" unicode="&#xd3;" horiz-adv-x="1593" 
 />
    <glyph glyph-name="Ocircumflex" unicode="&#xd4;" horiz-adv-x="1593" 
 />
    <glyph glyph-name="Ograve" unicode="&#xd2;" horiz-adv-x="1593" 
 />
    <glyph glyph-name="Uacute" unicode="&#xda;" horiz-adv-x="1479" 
 />
    <glyph glyph-name="Ucircumflex" unicode="&#xdb;" horiz-adv-x="1479" 
 />
    <glyph glyph-name="Ugrave" unicode="&#xd9;" horiz-adv-x="1479" 
 />
    <glyph glyph-name="dotlessi" unicode="&#x131;" horiz-adv-x="569" 
 />
    <glyph glyph-name="circumflex" unicode="&#x2c6;" horiz-adv-x="682" 
 />
    <glyph glyph-name="tilde" unicode="&#x2dc;" horiz-adv-x="682" 
 />
    <glyph glyph-name="uni02C9" unicode="&#x2c9;" horiz-adv-x="682" 
 />
    <glyph glyph-name="breve" unicode="&#x2d8;" horiz-adv-x="682" 
 />
    <glyph glyph-name="dotaccent" unicode="&#x2d9;" horiz-adv-x="682" 
 />
    <glyph glyph-name="ring" unicode="&#x2da;" horiz-adv-x="682" 
 />
    <glyph glyph-name="cedilla" unicode="&#xb8;" horiz-adv-x="682" 
 />
    <glyph glyph-name="hungarumlaut" unicode="&#x2dd;" horiz-adv-x="682" 
 />
    <glyph glyph-name="ogonek" unicode="&#x2db;" horiz-adv-x="682" 
 />
    <glyph glyph-name="caron" unicode="&#x2c7;" horiz-adv-x="682" 
 />
    <glyph glyph-name="Lslash" unicode="&#x141;" 
 />
    <glyph glyph-name="lslash" unicode="&#x142;" horiz-adv-x="455" 
 />
    <glyph glyph-name="Scaron" unicode="&#x160;" horiz-adv-x="1366" 
 />
    <glyph glyph-name="scaron" unicode="&#x161;" horiz-adv-x="1024" 
 />
    <glyph glyph-name="Zcaron" unicode="&#x17d;" horiz-adv-x="1251" 
 />
    <glyph glyph-name="zcaron" unicode="&#x17e;" horiz-adv-x="1024" 
 />
    <glyph glyph-name="brokenbar" unicode="&#xa6;" horiz-adv-x="532" 
 />
    <glyph glyph-name="Eth" unicode="&#xd0;" horiz-adv-x="1479" 
 />
    <glyph glyph-name="eth" unicode="&#xf0;" 
 />
    <glyph glyph-name="Yacute" unicode="&#xdd;" horiz-adv-x="1366" 
 />
    <glyph glyph-name="yacute" unicode="&#xfd;" horiz-adv-x="1024" 
 />
    <glyph glyph-name="Thorn" unicode="&#xde;" horiz-adv-x="1366" 
 />
    <glyph glyph-name="thorn" unicode="&#xfe;" 
 />
    <glyph glyph-name="minus" unicode="&#x2212;" horiz-adv-x="1196" 
 />
    <glyph glyph-name="multiply" unicode="&#xd7;" horiz-adv-x="1196" 
 />
    <glyph glyph-name="uni00B9" unicode="&#xb9;" horiz-adv-x="682" 
 />
    <glyph glyph-name="uni00B2" unicode="&#xb2;" horiz-adv-x="682" 
 />
    <glyph glyph-name="uni00B3" unicode="&#xb3;" horiz-adv-x="682" 
 />
    <glyph glyph-name="onehalf" unicode="&#xbd;" horiz-adv-x="1708" 
 />
    <glyph glyph-name="onequarter" unicode="&#xbc;" horiz-adv-x="1708" 
 />
    <glyph glyph-name="threequarters" unicode="&#xbe;" horiz-adv-x="1708" 
 />
    <glyph glyph-name="franc" unicode="&#x20a3;" 
 />
    <glyph glyph-name="Gbreve" unicode="&#x11e;" horiz-adv-x="1593" 
 />
    <glyph glyph-name="gbreve" unicode="&#x11f;" 
 />
    <glyph glyph-name="Idotaccent" unicode="&#x130;" horiz-adv-x="569" 
 />
    <glyph glyph-name="Scedilla" unicode="&#x15e;" horiz-adv-x="1366" 
 />
    <glyph glyph-name="scedilla" unicode="&#x15f;" horiz-adv-x="1024" 
 />
    <glyph glyph-name="Cacute" unicode="&#x106;" horiz-adv-x="1479" 
 />
    <glyph glyph-name="cacute" unicode="&#x107;" horiz-adv-x="1024" 
 />
    <glyph glyph-name="Ccaron" unicode="&#x10c;" horiz-adv-x="1479" 
 />
    <glyph glyph-name="ccaron" unicode="&#x10d;" horiz-adv-x="1024" 
 />
    <glyph glyph-name="dcroat" unicode="&#x111;" 
 />
    <glyph glyph-name="currency" unicode="&#xa4;" 
 />
    <glyph glyph-name="macron" unicode="&#xaf;" horiz-adv-x="1131" 
 />
    <glyph glyph-name="Amacron" unicode="&#x100;" horiz-adv-x="1366" 
 />
    <glyph glyph-name="amacron" unicode="&#x101;" 
 />
    <glyph glyph-name="Abreve" unicode="&#x102;" horiz-adv-x="1366" 
 />
    <glyph glyph-name="abreve" unicode="&#x103;" 
 />
    <glyph glyph-name="Aogonek" unicode="&#x104;" horiz-adv-x="1366" 
 />
    <glyph glyph-name="aogonek" unicode="&#x105;" 
 />
    <glyph glyph-name="Ccircumflex" unicode="&#x108;" horiz-adv-x="1479" 
 />
    <glyph glyph-name="ccircumflex" unicode="&#x109;" horiz-adv-x="1024" 
 />
    <glyph glyph-name="Cdotaccent" unicode="&#x10a;" horiz-adv-x="1479" 
 />
    <glyph glyph-name="cdotaccent" unicode="&#x10b;" horiz-adv-x="1024" 
 />
    <glyph glyph-name="Dcaron" unicode="&#x10e;" horiz-adv-x="1479" 
 />
    <glyph glyph-name="dcaron" unicode="&#x10f;" horiz-adv-x="1259" 
 />
    <glyph glyph-name="Dcroat" unicode="&#x110;" horiz-adv-x="1479" 
 />
    <glyph glyph-name="Emacron" unicode="&#x112;" horiz-adv-x="1366" 
 />
    <glyph glyph-name="emacron" unicode="&#x113;" 
 />
    <glyph glyph-name="Ebreve" unicode="&#x114;" horiz-adv-x="1366" 
 />
    <glyph glyph-name="ebreve" unicode="&#x115;" 
 />
    <glyph glyph-name="Edotaccent" unicode="&#x116;" horiz-adv-x="1366" 
 />
    <glyph glyph-name="edotaccent" unicode="&#x117;" 
 />
    <glyph glyph-name="Eogonek" unicode="&#x118;" horiz-adv-x="1366" 
 />
    <glyph glyph-name="eogonek" unicode="&#x119;" 
 />
    <glyph glyph-name="Ecaron" unicode="&#x11a;" horiz-adv-x="1366" 
 />
    <glyph glyph-name="ecaron" unicode="&#x11b;" 
 />
    <glyph glyph-name="Gcircumflex" unicode="&#x11c;" horiz-adv-x="1593" 
 />
    <glyph glyph-name="gcircumflex" unicode="&#x11d;" 
 />
    <glyph glyph-name="Gdotaccent" unicode="&#x120;" horiz-adv-x="1593" 
 />
    <glyph glyph-name="gdotaccent" unicode="&#x121;" 
 />
    <glyph glyph-name="Gcommaaccent" unicode="&#x122;" horiz-adv-x="1593" 
 />
    <glyph glyph-name="gcommaaccent" unicode="&#x123;" 
 />
    <glyph glyph-name="Hcircumflex" unicode="&#x124;" horiz-adv-x="1479" 
 />
    <glyph glyph-name="hcircumflex" unicode="&#x125;" 
 />
    <glyph glyph-name="Hbar" unicode="&#x126;" horiz-adv-x="1479" 
 />
    <glyph glyph-name="hbar" unicode="&#x127;" 
 />
    <glyph glyph-name="Itilde" unicode="&#x128;" horiz-adv-x="569" 
 />
    <glyph glyph-name="itilde" unicode="&#x129;" horiz-adv-x="569" 
 />
    <glyph glyph-name="Imacron" unicode="&#x12a;" horiz-adv-x="569" 
 />
    <glyph glyph-name="imacron" unicode="&#x12b;" horiz-adv-x="569" 
 />
    <glyph glyph-name="Ibreve" unicode="&#x12c;" horiz-adv-x="569" 
 />
    <glyph glyph-name="ibreve" unicode="&#x12d;" horiz-adv-x="569" 
 />
    <glyph glyph-name="Iogonek" unicode="&#x12e;" horiz-adv-x="569" 
 />
    <glyph glyph-name="iogonek" unicode="&#x12f;" horiz-adv-x="455" 
 />
    <glyph glyph-name="IJ" unicode="&#x132;" horiz-adv-x="1505" 
 />
    <glyph glyph-name="ij" unicode="&#x133;" horiz-adv-x="909" 
 />
    <glyph glyph-name="Jcircumflex" unicode="&#x134;" horiz-adv-x="1024" 
 />
    <glyph glyph-name="jcircumflex" unicode="&#x135;" horiz-adv-x="455" 
 />
    <glyph glyph-name="Kcommaaccent" unicode="&#x136;" horiz-adv-x="1366" 
 />
    <glyph glyph-name="kcommaaccent" unicode="&#x137;" horiz-adv-x="1024" 
 />
    <glyph glyph-name="kgreenlandic" unicode="&#x138;" horiz-adv-x="1024" 
 />
    <glyph glyph-name="Lacute" unicode="&#x139;" 
 />
    <glyph glyph-name="lacute" unicode="&#x13a;" horiz-adv-x="455" 
 />
    <glyph glyph-name="Lcommaaccent" unicode="&#x13b;" 
 />
    <glyph glyph-name="lcommaaccent" unicode="&#x13c;" horiz-adv-x="455" 
 />
    <glyph glyph-name="Lcaron" unicode="&#x13d;" 
 />
    <glyph glyph-name="lcaron" unicode="&#x13e;" horiz-adv-x="597" 
 />
    <glyph glyph-name="Ldot" unicode="&#x13f;" 
 />
    <glyph glyph-name="ldot" unicode="&#x140;" horiz-adv-x="684" 
 />
    <glyph glyph-name="Nacute" unicode="&#x143;" horiz-adv-x="1479" 
 />
    <glyph glyph-name="nacute" unicode="&#x144;" 
 />
    <glyph glyph-name="Ncommaaccent" unicode="&#x145;" horiz-adv-x="1479" 
 />
    <glyph glyph-name="ncommaaccent" unicode="&#x146;" 
 />
    <glyph glyph-name="Ncaron" unicode="&#x147;" horiz-adv-x="1479" 
 />
    <glyph glyph-name="ncaron" unicode="&#x148;" 
 />
    <glyph glyph-name="napostrophe" unicode="&#x149;" horiz-adv-x="1237" 
 />
    <glyph glyph-name="Eng" unicode="&#x14a;" horiz-adv-x="1481" 
 />
    <glyph glyph-name="eng" unicode="&#x14b;" 
 />
    <glyph glyph-name="Omacron" unicode="&#x14c;" horiz-adv-x="1593" 
 />
    <glyph glyph-name="omacron" unicode="&#x14d;" 
 />
    <glyph glyph-name="Obreve" unicode="&#x14e;" horiz-adv-x="1593" 
 />
    <glyph glyph-name="obreve" unicode="&#x14f;" 
 />
    <glyph glyph-name="Ohungarumlaut" unicode="&#x150;" horiz-adv-x="1593" 
 />
    <glyph glyph-name="ohungarumlaut" unicode="&#x151;" 
 />
    <glyph glyph-name="Racute" unicode="&#x154;" horiz-adv-x="1479" 
 />
    <glyph glyph-name="racute" unicode="&#x155;" horiz-adv-x="682" 
 />
    <glyph glyph-name="Rcommaaccent" unicode="&#x156;" horiz-adv-x="1479" 
 />
    <glyph glyph-name="rcommaaccent" unicode="&#x157;" horiz-adv-x="682" 
 />
    <glyph glyph-name="Rcaron" unicode="&#x158;" horiz-adv-x="1479" 
 />
    <glyph glyph-name="rcaron" unicode="&#x159;" horiz-adv-x="682" 
 />
    <glyph glyph-name="Sacute" unicode="&#x15a;" horiz-adv-x="1366" 
 />
    <glyph glyph-name="sacute" unicode="&#x15b;" horiz-adv-x="1024" 
 />
    <glyph glyph-name="Scircumflex" unicode="&#x15c;" horiz-adv-x="1366" 
 />
    <glyph glyph-name="scircumflex" unicode="&#x15d;" horiz-adv-x="1024" 
 />
    <glyph glyph-name="Tcommaaccent" unicode="&#x162;" horiz-adv-x="1251" 
 />
    <glyph glyph-name="tcommaaccent" unicode="&#x163;" horiz-adv-x="569" 
 />
    <glyph glyph-name="Tcaron" unicode="&#x164;" horiz-adv-x="1251" 
 />
    <glyph glyph-name="tcaron" unicode="&#x165;" horiz-adv-x="768" 
 />
    <glyph glyph-name="Tbar" unicode="&#x166;" horiz-adv-x="1251" 
 />
    <glyph glyph-name="tbar" unicode="&#x167;" horiz-adv-x="569" 
 />
    <glyph glyph-name="Utilde" unicode="&#x168;" horiz-adv-x="1479" 
 />
    <glyph glyph-name="utilde" unicode="&#x169;" 
 />
    <glyph glyph-name="Umacron" unicode="&#x16a;" horiz-adv-x="1479" 
 />
    <glyph glyph-name="umacron" unicode="&#x16b;" 
 />
    <glyph glyph-name="Ubreve" unicode="&#x16c;" horiz-adv-x="1479" 
 />
    <glyph glyph-name="ubreve" unicode="&#x16d;" 
 />
    <glyph glyph-name="Uring" unicode="&#x16e;" horiz-adv-x="1479" 
 />
    <glyph glyph-name="uring" unicode="&#x16f;" 
 />
    <glyph glyph-name="Uhungarumlaut" unicode="&#x170;" horiz-adv-x="1479" 
 />
    <glyph glyph-name="uhungarumlaut" unicode="&#x171;" 
 />
    <glyph glyph-name="Uogonek" unicode="&#x172;" horiz-adv-x="1479" 
 />
    <glyph glyph-name="uogonek" unicode="&#x173;" 
 />
    <glyph glyph-name="Wcircumflex" unicode="&#x174;" horiz-adv-x="1933" 
 />
    <glyph glyph-name="wcircumflex" unicode="&#x175;" horiz-adv-x="1479" 
 />
    <glyph glyph-name="Ycircumflex" unicode="&#x176;" horiz-adv-x="1366" 
 />
    <glyph glyph-name="ycircumflex" unicode="&#x177;" horiz-adv-x="1024" 
 />
    <glyph glyph-name="Zacute" unicode="&#x179;" horiz-adv-x="1251" 
 />
    <glyph glyph-name="zacute" unicode="&#x17a;" horiz-adv-x="1024" 
 />
    <glyph glyph-name="Zdotaccent" unicode="&#x17b;" horiz-adv-x="1251" 
 />
    <glyph glyph-name="zdotaccent" unicode="&#x17c;" horiz-adv-x="1024" 
 />
    <glyph glyph-name="longs" unicode="&#x17f;" horiz-adv-x="455" 
 />
    <glyph glyph-name="Aringacute" unicode="&#x1fa;" horiz-adv-x="1366" 
 />
    <glyph glyph-name="aringacute" unicode="&#x1fb;" 
 />
    <glyph glyph-name="AEacute" unicode="&#x1fc;" horiz-adv-x="2048" 
 />
    <glyph glyph-name="aeacute" unicode="&#x1fd;" horiz-adv-x="1821" 
 />
    <glyph glyph-name="Oslashacute" unicode="&#x1fe;" horiz-adv-x="1593" 
 />
    <glyph glyph-name="oslashacute" unicode="&#x1ff;" horiz-adv-x="1251" 
 />
    <glyph glyph-name="tonos" unicode="&#x384;" horiz-adv-x="682" 
 />
    <glyph glyph-name="dieresistonos" unicode="&#x385;" horiz-adv-x="682" 
 />
    <glyph glyph-name="Alphatonos" unicode="&#x386;" horiz-adv-x="1367" 
 />
    <glyph glyph-name="anoteleia" unicode="&#x387;" horiz-adv-x="569" 
 />
    <glyph glyph-name="Epsilontonos" unicode="&#x388;" horiz-adv-x="1606" 
 />
    <glyph glyph-name="Etatonos" unicode="&#x389;" horiz-adv-x="1716" 
 />
    <glyph glyph-name="Iotatonos" unicode="&#x38a;" horiz-adv-x="786" 
 />
    <glyph glyph-name="Omicrontonos" unicode="&#x38c;" horiz-adv-x="1586" 
 />
    <glyph glyph-name="Upsilontonos" unicode="&#x38e;" horiz-adv-x="1752" 
 />
    <glyph glyph-name="Omegatonos" unicode="&#x38f;" horiz-adv-x="1541" 
 />
    <glyph glyph-name="iotadieresistonos" unicode="&#x390;" horiz-adv-x="455" 
 />
    <glyph glyph-name="Alpha" unicode="&#x391;" horiz-adv-x="1366" 
 />
    <glyph glyph-name="Beta" unicode="&#x392;" horiz-adv-x="1366" 
 />
    <glyph glyph-name="Gamma" unicode="&#x393;" horiz-adv-x="1128" 
 />
    <glyph glyph-name="uni0394" unicode="&#x394;" horiz-adv-x="1368" 
 />
    <glyph glyph-name="Epsilon" unicode="&#x395;" horiz-adv-x="1366" 
 />
    <glyph glyph-name="Zeta" unicode="&#x396;" horiz-adv-x="1251" 
 />
    <glyph glyph-name="Eta" unicode="&#x397;" horiz-adv-x="1479" 
 />
    <glyph glyph-name="Theta" unicode="&#x398;" horiz-adv-x="1593" 
 />
    <glyph glyph-name="Iota" unicode="&#x399;" horiz-adv-x="569" 
 />
    <glyph glyph-name="Kappa" unicode="&#x39a;" horiz-adv-x="1366" 
 />
    <glyph glyph-name="Lambda" unicode="&#x39b;" horiz-adv-x="1368" 
 />
    <glyph glyph-name="Mu" unicode="&#x39c;" horiz-adv-x="1706" 
 />
    <glyph glyph-name="Nu" unicode="&#x39d;" horiz-adv-x="1479" 
 />
    <glyph glyph-name="Xi" unicode="&#x39e;" horiz-adv-x="1331" 
 />
    <glyph glyph-name="Omicron" unicode="&#x39f;" horiz-adv-x="1593" 
 />
    <glyph glyph-name="Pi" unicode="&#x3a0;" horiz-adv-x="1479" 
 />
    <glyph glyph-name="Rho" unicode="&#x3a1;" horiz-adv-x="1366" 
 />
    <glyph glyph-name="Sigma" unicode="&#x3a3;" horiz-adv-x="1266" 
 />
    <glyph glyph-name="Tau" unicode="&#x3a4;" horiz-adv-x="1251" 
 />
    <glyph glyph-name="Upsilon" unicode="&#x3a5;" horiz-adv-x="1366" 
 />
    <glyph glyph-name="Phi" unicode="&#x3a6;" horiz-adv-x="1634" 
 />
    <glyph glyph-name="Chi" unicode="&#x3a7;" horiz-adv-x="1366" 
 />
    <glyph glyph-name="Psi" unicode="&#x3a8;" horiz-adv-x="1711" 
 />
    <glyph glyph-name="uni03A9" unicode="&#x3a9;" horiz-adv-x="1531" 
 />
    <glyph glyph-name="Iotadieresis" unicode="&#x3aa;" horiz-adv-x="569" 
 />
    <glyph glyph-name="Upsilondieresis" unicode="&#x3ab;" horiz-adv-x="1366" 
 />
    <glyph glyph-name="alphatonos" unicode="&#x3ac;" horiz-adv-x="1184" 
 />
    <glyph glyph-name="epsilontonos" unicode="&#x3ad;" horiz-adv-x="913" 
 />
    <glyph glyph-name="etatonos" unicode="&#x3ae;" 
 />
    <glyph glyph-name="iotatonos" unicode="&#x3af;" horiz-adv-x="455" 
 />
    <glyph glyph-name="upsilondieresistonos" unicode="&#x3b0;" horiz-adv-x="1120" 
 />
    <glyph glyph-name="alpha" unicode="&#x3b1;" horiz-adv-x="1184" 
 />
    <glyph glyph-name="beta" unicode="&#x3b2;" horiz-adv-x="1178" 
 />
    <glyph glyph-name="gamma" unicode="&#x3b3;" horiz-adv-x="1024" 
 />
    <glyph glyph-name="delta" unicode="&#x3b4;" horiz-adv-x="1140" 
 />
    <glyph glyph-name="epsilon" unicode="&#x3b5;" horiz-adv-x="913" 
 />
    <glyph glyph-name="zeta" unicode="&#x3b6;" horiz-adv-x="903" 
 />
    <glyph glyph-name="eta" unicode="&#x3b7;" 
 />
    <glyph glyph-name="theta" unicode="&#x3b8;" 
 />
    <glyph glyph-name="iota" unicode="&#x3b9;" horiz-adv-x="455" 
 />
    <glyph glyph-name="kappa" unicode="&#x3ba;" horiz-adv-x="1024" 
 />
    <glyph glyph-name="lambda" unicode="&#x3bb;" horiz-adv-x="1024" 
 />
    <glyph glyph-name="uni03BC" unicode="&#x3bc;" horiz-adv-x="1180" 
 />
    <glyph glyph-name="nu" unicode="&#x3bd;" horiz-adv-x="1024" 
 />
    <glyph glyph-name="xi" unicode="&#x3be;" horiz-adv-x="917" 
 />
    <glyph glyph-name="omicron" unicode="&#x3bf;" 
 />
    <glyph glyph-name="pi" unicode="&#x3c0;" horiz-adv-x="1413" 
 />
    <glyph glyph-name="rho" unicode="&#x3c1;" horiz-adv-x="1165" 
 />
    <glyph glyph-name="sigma1" unicode="&#x3c2;" horiz-adv-x="987" 
 />
    <glyph glyph-name="sigma" unicode="&#x3c3;" horiz-adv-x="1264" 
 />
    <glyph glyph-name="tau" unicode="&#x3c4;" horiz-adv-x="809" 
 />
    <glyph glyph-name="upsilon" unicode="&#x3c5;" horiz-adv-x="1120" 
 />
    <glyph glyph-name="phi" unicode="&#x3c6;" horiz-adv-x="1328" 
 />
    <glyph glyph-name="chi" unicode="&#x3c7;" horiz-adv-x="1075" 
 />
    <glyph glyph-name="psi" unicode="&#x3c8;" horiz-adv-x="1460" 
 />
    <glyph glyph-name="omega" unicode="&#x3c9;" horiz-adv-x="1599" 
 />
    <glyph glyph-name="iotadieresis" unicode="&#x3ca;" horiz-adv-x="455" 
 />
    <glyph glyph-name="upsilondieresis" unicode="&#x3cb;" horiz-adv-x="1120" 
 />
    <glyph glyph-name="omicrontonos" unicode="&#x3cc;" 
 />
    <glyph glyph-name="upsilontonos" unicode="&#x3cd;" horiz-adv-x="1120" 
 />
    <glyph glyph-name="omegatonos" unicode="&#x3ce;" horiz-adv-x="1599" 
 />
    <glyph glyph-name="afii10023" unicode="&#x401;" horiz-adv-x="1367" 
 />
    <glyph glyph-name="afii10051" unicode="&#x402;" horiz-adv-x="1771" 
 />
    <glyph glyph-name="afii10052" unicode="&#x403;" horiz-adv-x="1109" 
 />
    <glyph glyph-name="afii10053" unicode="&#x404;" horiz-adv-x="1472" 
 />
    <glyph glyph-name="afii10054" unicode="&#x405;" horiz-adv-x="1366" 
 />
    <glyph glyph-name="afii10055" unicode="&#x406;" horiz-adv-x="569" 
 />
    <glyph glyph-name="afii10056" unicode="&#x407;" horiz-adv-x="569" 
 />
    <glyph glyph-name="afii10057" unicode="&#x408;" horiz-adv-x="1024" 
 />
    <glyph glyph-name="afii10058" unicode="&#x409;" horiz-adv-x="2165" 
 />
    <glyph glyph-name="afii10059" unicode="&#x40a;" horiz-adv-x="2069" 
 />
    <glyph glyph-name="afii10060" unicode="&#x40b;" horiz-adv-x="1749" 
 />
    <glyph glyph-name="afii10061" unicode="&#x40c;" horiz-adv-x="1193" 
 />
    <glyph glyph-name="afii10062" unicode="&#x40e;" horiz-adv-x="1301" 
 />
    <glyph glyph-name="afii10145" unicode="&#x40f;" horiz-adv-x="1472" 
 />
    <glyph glyph-name="afii10017" unicode="&#x410;" horiz-adv-x="1366" 
 />
    <glyph glyph-name="afii10018" unicode="&#x411;" horiz-adv-x="1344" 
 />
    <glyph glyph-name="afii10019" unicode="&#x412;" horiz-adv-x="1366" 
 />
    <glyph glyph-name="afii10020" unicode="&#x413;" horiz-adv-x="1109" 
 />
    <glyph glyph-name="afii10021" unicode="&#x414;" horiz-adv-x="1387" 
 />
    <glyph glyph-name="afii10022" unicode="&#x415;" horiz-adv-x="1366" 
 />
    <glyph glyph-name="afii10024" unicode="&#x416;" horiz-adv-x="1891" 
 />
    <glyph glyph-name="afii10025" unicode="&#x417;" horiz-adv-x="1237" 
 />
    <glyph glyph-name="afii10026" unicode="&#x418;" horiz-adv-x="1472" 
 />
    <glyph glyph-name="afii10027" unicode="&#x419;" horiz-adv-x="1472" 
 />
    <glyph glyph-name="afii10028" unicode="&#x41a;" horiz-adv-x="1193" 
 />
    <glyph glyph-name="afii10029" unicode="&#x41b;" horiz-adv-x="1344" 
 />
    <glyph glyph-name="afii10030" unicode="&#x41c;" horiz-adv-x="1706" 
 />
    <glyph glyph-name="afii10031" unicode="&#x41d;" horiz-adv-x="1479" 
 />
    <glyph glyph-name="afii10032" unicode="&#x41e;" horiz-adv-x="1593" 
 />
    <glyph glyph-name="afii10033" unicode="&#x41f;" horiz-adv-x="1472" 
 />
    <glyph glyph-name="afii10034" unicode="&#x420;" horiz-adv-x="1366" 
 />
    <glyph glyph-name="afii10035" unicode="&#x421;" horiz-adv-x="1479" 
 />
    <glyph glyph-name="afii10036" unicode="&#x422;" horiz-adv-x="1251" 
 />
    <glyph glyph-name="afii10037" unicode="&#x423;" horiz-adv-x="1301" 
 />
    <glyph glyph-name="afii10038" unicode="&#x424;" horiz-adv-x="1557" 
 />
    <glyph glyph-name="afii10039" unicode="&#x425;" horiz-adv-x="1366" 
 />
    <glyph glyph-name="afii10040" unicode="&#x426;" horiz-adv-x="1515" 
 />
    <glyph glyph-name="afii10041" unicode="&#x427;" horiz-adv-x="1365" 
 />
    <glyph glyph-name="afii10042" unicode="&#x428;" horiz-adv-x="1877" 
 />
    <glyph glyph-name="afii10043" unicode="&#x429;" horiz-adv-x="1920" 
 />
    <glyph glyph-name="afii10044" unicode="&#x42a;" horiz-adv-x="1621" 
 />
    <glyph glyph-name="afii10045" unicode="&#x42b;" horiz-adv-x="1813" 
 />
    <glyph glyph-name="afii10046" unicode="&#x42c;" horiz-adv-x="1344" 
 />
    <glyph glyph-name="afii10047" unicode="&#x42d;" horiz-adv-x="1472" 
 />
    <glyph glyph-name="afii10048" unicode="&#x42e;" horiz-adv-x="2069" 
 />
    <glyph glyph-name="afii10049" unicode="&#x42f;" horiz-adv-x="1479" 
 />
    <glyph glyph-name="afii10065" unicode="&#x430;" 
 />
    <glyph glyph-name="afii10066" unicode="&#x431;" horiz-adv-x="1173" 
 />
    <glyph glyph-name="afii10067" unicode="&#x432;" horiz-adv-x="1088" 
 />
    <glyph glyph-name="afii10068" unicode="&#x433;" horiz-adv-x="747" 
 />
    <glyph glyph-name="afii10069" unicode="&#x434;" horiz-adv-x="1195" 
 />
    <glyph glyph-name="afii10070" unicode="&#x435;" 
 />
    <glyph glyph-name="afii10072" unicode="&#x436;" horiz-adv-x="1370" 
 />
    <glyph glyph-name="afii10073" unicode="&#x437;" horiz-adv-x="939" 
 />
    <glyph glyph-name="afii10074" unicode="&#x438;" horiz-adv-x="1144" 
 />
    <glyph glyph-name="afii10075" unicode="&#x439;" horiz-adv-x="1144" 
 />
    <glyph glyph-name="afii10076" unicode="&#x43a;" horiz-adv-x="896" 
 />
    <glyph glyph-name="afii10077" unicode="&#x43b;" horiz-adv-x="1195" 
 />
    <glyph glyph-name="afii10078" unicode="&#x43c;" horiz-adv-x="1408" 
 />
    <glyph glyph-name="afii10079" unicode="&#x43d;" horiz-adv-x="1131" 
 />
    <glyph glyph-name="afii10080" unicode="&#x43e;" 
 />
    <glyph glyph-name="afii10081" unicode="&#x43f;" horiz-adv-x="1109" 
 />
    <glyph glyph-name="afii10082" unicode="&#x440;" 
 />
    <glyph glyph-name="afii10083" unicode="&#x441;" horiz-adv-x="1024" 
 />
    <glyph glyph-name="afii10084" unicode="&#x442;" horiz-adv-x="938" 
 />
    <glyph glyph-name="afii10085" unicode="&#x443;" horiz-adv-x="1024" 
 />
    <glyph glyph-name="afii10086" unicode="&#x444;" horiz-adv-x="1685" 
 />
    <glyph glyph-name="afii10087" unicode="&#x445;" horiz-adv-x="1024" 
 />
    <glyph glyph-name="afii10088" unicode="&#x446;" horiz-adv-x="1173" 
 />
    <glyph glyph-name="afii10089" unicode="&#x447;" horiz-adv-x="1067" 
 />
    <glyph glyph-name="afii10090" unicode="&#x448;" horiz-adv-x="1643" 
 />
    <glyph glyph-name="afii10091" unicode="&#x449;" horiz-adv-x="1685" 
 />
    <glyph glyph-name="afii10092" unicode="&#x44a;" horiz-adv-x="1280" 
 />
    <glyph glyph-name="afii10093" unicode="&#x44b;" horiz-adv-x="1472" 
 />
    <glyph glyph-name="afii10094" unicode="&#x44c;" horiz-adv-x="1067" 
 />
    <glyph glyph-name="afii10095" unicode="&#x44d;" horiz-adv-x="1045" 
 />
    <glyph glyph-name="afii10096" unicode="&#x44e;" horiz-adv-x="1536" 
 />
    <glyph glyph-name="afii10097" unicode="&#x44f;" horiz-adv-x="1109" 
 />
    <glyph glyph-name="afii10071" unicode="&#x451;" 
 />
    <glyph glyph-name="afii10099" unicode="&#x452;" 
 />
    <glyph glyph-name="afii10100" unicode="&#x453;" horiz-adv-x="747" 
 />
    <glyph glyph-name="afii10101" unicode="&#x454;" horiz-adv-x="1045" 
 />
    <glyph glyph-name="afii10102" unicode="&#x455;" horiz-adv-x="1024" 
 />
    <glyph glyph-name="afii10103" unicode="&#x456;" horiz-adv-x="455" 
 />
    <glyph glyph-name="afii10104" unicode="&#x457;" horiz-adv-x="569" 
 />
    <glyph glyph-name="afii10105" unicode="&#x458;" horiz-adv-x="455" 
 />
    <glyph glyph-name="afii10106" unicode="&#x459;" horiz-adv-x="1856" 
 />
    <glyph glyph-name="afii10107" unicode="&#x45a;" horiz-adv-x="1664" 
 />
    <glyph glyph-name="afii10108" unicode="&#x45b;" 
 />
    <glyph glyph-name="afii10109" unicode="&#x45c;" horiz-adv-x="896" 
 />
    <glyph glyph-name="afii10110" unicode="&#x45e;" horiz-adv-x="1024" 
 />
    <glyph glyph-name="afii10193" unicode="&#x45f;" horiz-adv-x="1131" 
 />
    <glyph glyph-name="afii10050" unicode="&#x490;" horiz-adv-x="1001" 
 />
    <glyph glyph-name="afii10098" unicode="&#x491;" horiz-adv-x="842" 
 />
    <glyph glyph-name="Wgrave" unicode="&#x1e80;" horiz-adv-x="1933" 
 />
    <glyph glyph-name="wgrave" unicode="&#x1e81;" horiz-adv-x="1479" 
 />
    <glyph glyph-name="Wacute" unicode="&#x1e82;" horiz-adv-x="1933" 
 />
    <glyph glyph-name="wacute" unicode="&#x1e83;" horiz-adv-x="1479" 
 />
    <glyph glyph-name="Wdieresis" unicode="&#x1e84;" horiz-adv-x="1933" 
 />
    <glyph glyph-name="wdieresis" unicode="&#x1e85;" horiz-adv-x="1479" 
 />
    <glyph glyph-name="Ygrave" unicode="&#x1ef2;" horiz-adv-x="1366" 
 />
    <glyph glyph-name="ygrave" unicode="&#x1ef3;" horiz-adv-x="1024" 
 />
    <glyph glyph-name="afii00208" unicode="&#x2015;" horiz-adv-x="2048" 
 />
    <glyph glyph-name="underscoredbl" unicode="&#x2017;" horiz-adv-x="1131" 
 />
    <glyph glyph-name="quotereversed" unicode="&#x201b;" horiz-adv-x="455" 
 />
    <glyph glyph-name="minute" unicode="&#x2032;" horiz-adv-x="384" 
 />
    <glyph glyph-name="second" unicode="&#x2033;" horiz-adv-x="725" 
 />
    <glyph glyph-name="exclamdbl" unicode="&#x203c;" horiz-adv-x="1024" 
 />
    <glyph glyph-name="uni203E" unicode="&#x203e;" horiz-adv-x="682" 
 />
    <glyph glyph-name="uni207F" unicode="&#x207f;" horiz-adv-x="747" 
 />
    <glyph glyph-name="lira" unicode="&#x20a4;" 
 />
    <glyph glyph-name="peseta" unicode="&#x20a7;" horiz-adv-x="2240" 
 />
    <glyph glyph-name="afii61248" unicode="&#x2105;" horiz-adv-x="1813" 
 />
    <glyph glyph-name="afii61289" unicode="&#x2113;" horiz-adv-x="662" 
 />
    <glyph glyph-name="afii61352" unicode="&#x2116;" horiz-adv-x="2197" 
 />
    <glyph glyph-name="estimated" unicode="&#x212e;" horiz-adv-x="1229" 
 />
    <glyph glyph-name="oneeighth" unicode="&#x215b;" horiz-adv-x="1708" 
 />
    <glyph glyph-name="threeeighths" unicode="&#x215c;" horiz-adv-x="1708" 
 />
    <glyph glyph-name="fiveeighths" unicode="&#x215d;" horiz-adv-x="1708" 
 />
    <glyph glyph-name="seveneighths" unicode="&#x215e;" horiz-adv-x="1708" 
 />
    <glyph glyph-name="arrowleft" unicode="&#x2190;" horiz-adv-x="2048" 
 />
    <glyph glyph-name="arrowup" unicode="&#x2191;" horiz-adv-x="1024" 
 />
    <glyph glyph-name="arrowright" unicode="&#x2192;" horiz-adv-x="2048" 
 />
    <glyph glyph-name="arrowdown" unicode="&#x2193;" horiz-adv-x="1024" 
 />
    <glyph glyph-name="arrowboth" unicode="&#x2194;" horiz-adv-x="2048" 
 />
    <glyph glyph-name="arrowupdn" unicode="&#x2195;" horiz-adv-x="1024" 
 />
    <glyph glyph-name="arrowupdnbse" unicode="&#x21a8;" horiz-adv-x="1024" 
 />
    <glyph glyph-name="orthogonal" unicode="&#x221f;" horiz-adv-x="2005" 
 />
    <glyph glyph-name="intersection" unicode="&#x2229;" horiz-adv-x="1472" 
 />
    <glyph glyph-name="equivalence" unicode="&#x2261;" horiz-adv-x="1195" 
 />
    <glyph glyph-name="house" unicode="&#x2302;" horiz-adv-x="1237" 
 />
    <glyph glyph-name="revlogicalnot" unicode="&#x2310;" horiz-adv-x="1196" 
 />
    <glyph glyph-name="integraltp" unicode="&#x2320;" horiz-adv-x="1237" 
 />
    <glyph glyph-name="integralbt" unicode="&#x2321;" horiz-adv-x="1237" 
 />
    <glyph glyph-name="SF100000" unicode="&#x2500;" horiz-adv-x="1451" 
 />
    <glyph glyph-name="SF110000" unicode="&#x2502;" horiz-adv-x="1280" 
 />
    <glyph glyph-name="SF010000" unicode="&#x250c;" horiz-adv-x="1451" 
 />
    <glyph glyph-name="SF030000" unicode="&#x2510;" horiz-adv-x="1451" 
 />
    <glyph glyph-name="SF020000" unicode="&#x2514;" horiz-adv-x="1451" 
 />
    <glyph glyph-name="SF040000" unicode="&#x2518;" horiz-adv-x="1451" 
 />
    <glyph glyph-name="SF080000" unicode="&#x251c;" horiz-adv-x="1451" 
 />
    <glyph glyph-name="SF090000" unicode="&#x2524;" horiz-adv-x="1451" 
 />
    <glyph glyph-name="SF060000" unicode="&#x252c;" horiz-adv-x="1451" 
 />
    <glyph glyph-name="SF070000" unicode="&#x2534;" horiz-adv-x="1451" 
 />
    <glyph glyph-name="SF050000" unicode="&#x253c;" horiz-adv-x="1451" 
 />
    <glyph glyph-name="SF430000" unicode="&#x2550;" horiz-adv-x="1451" 
 />
    <glyph glyph-name="SF240000" unicode="&#x2551;" horiz-adv-x="1451" 
 />
    <glyph glyph-name="SF510000" unicode="&#x2552;" horiz-adv-x="1451" 
 />
    <glyph glyph-name="SF520000" unicode="&#x2553;" horiz-adv-x="1451" 
 />
    <glyph glyph-name="SF390000" unicode="&#x2554;" horiz-adv-x="1451" 
 />
    <glyph glyph-name="SF220000" unicode="&#x2555;" horiz-adv-x="1451" 
 />
    <glyph glyph-name="SF210000" unicode="&#x2556;" horiz-adv-x="1451" 
 />
    <glyph glyph-name="SF250000" unicode="&#x2557;" horiz-adv-x="1451" 
 />
    <glyph glyph-name="SF500000" unicode="&#x2558;" horiz-adv-x="1451" 
 />
    <glyph glyph-name="SF490000" unicode="&#x2559;" horiz-adv-x="1451" 
 />
    <glyph glyph-name="SF380000" unicode="&#x255a;" horiz-adv-x="1451" 
 />
    <glyph glyph-name="SF280000" unicode="&#x255b;" horiz-adv-x="1451" 
 />
    <glyph glyph-name="SF270000" unicode="&#x255c;" horiz-adv-x="1451" 
 />
    <glyph glyph-name="SF260000" unicode="&#x255d;" horiz-adv-x="1451" 
 />
    <glyph glyph-name="SF360000" unicode="&#x255e;" horiz-adv-x="1451" 
 />
    <glyph glyph-name="SF370000" unicode="&#x255f;" horiz-adv-x="1451" 
 />
    <glyph glyph-name="SF420000" unicode="&#x2560;" horiz-adv-x="1451" 
 />
    <glyph glyph-name="SF190000" unicode="&#x2561;" horiz-adv-x="1451" 
 />
    <glyph glyph-name="SF200000" unicode="&#x2562;" horiz-adv-x="1451" 
 />
    <glyph glyph-name="SF230000" unicode="&#x2563;" horiz-adv-x="1451" 
 />
    <glyph glyph-name="SF470000" unicode="&#x2564;" horiz-adv-x="1451" 
 />
    <glyph glyph-name="SF480000" unicode="&#x2565;" horiz-adv-x="1451" 
 />
    <glyph glyph-name="SF410000" unicode="&#x2566;" horiz-adv-x="1451" 
 />
    <glyph glyph-name="SF450000" unicode="&#x2567;" horiz-adv-x="1451" 
 />
    <glyph glyph-name="SF460000" unicode="&#x2568;" horiz-adv-x="1451" 
 />
    <glyph glyph-name="SF400000" unicode="&#x2569;" horiz-adv-x="1451" 
 />
    <glyph glyph-name="SF540000" unicode="&#x256a;" horiz-adv-x="1451" 
 />
    <glyph glyph-name="SF530000" unicode="&#x256b;" horiz-adv-x="1451" 
 />
    <glyph glyph-name="SF440000" unicode="&#x256c;" horiz-adv-x="1451" 
 />
    <glyph glyph-name="upblock" unicode="&#x2580;" horiz-adv-x="1451" 
 />
    <glyph glyph-name="dnblock" unicode="&#x2584;" horiz-adv-x="1451" 
 />
    <glyph glyph-name="block" unicode="&#x2588;" horiz-adv-x="1451" 
 />
    <glyph glyph-name="lfblock" unicode="&#x258c;" horiz-adv-x="1451" 
 />
    <glyph glyph-name="rtblock" unicode="&#x2590;" horiz-adv-x="1451" 
 />
    <glyph glyph-name="ltshade" unicode="&#x2591;" horiz-adv-x="1451" 
 />
    <glyph glyph-name="shade" unicode="&#x2592;" horiz-adv-x="1451" 
 />
    <glyph glyph-name="dkshade" unicode="&#x2593;" horiz-adv-x="1493" 
 />
    <glyph glyph-name="filledbox" unicode="&#x25a0;" horiz-adv-x="1237" 
 />
    <glyph glyph-name="H22073" unicode="&#x25a1;" horiz-adv-x="1237" 
 />
    <glyph glyph-name="H18543" unicode="&#x25aa;" horiz-adv-x="726" 
 />
    <glyph glyph-name="H18551" unicode="&#x25ab;" horiz-adv-x="726" 
 />
    <glyph glyph-name="filledrect" unicode="&#x25ac;" horiz-adv-x="2048" 
 />
    <glyph glyph-name="triagup" unicode="&#x25b2;" horiz-adv-x="2027" 
 />
    <glyph glyph-name="triagrt" unicode="&#x25ba;" horiz-adv-x="2027" 
 />
    <glyph glyph-name="triagdn" unicode="&#x25bc;" horiz-adv-x="2027" 
 />
    <glyph glyph-name="triaglf" unicode="&#x25c4;" horiz-adv-x="2027" 
 />
    <glyph glyph-name="circle" unicode="&#x25cb;" horiz-adv-x="1237" 
 />
    <glyph glyph-name="H18533" unicode="&#x25cf;" horiz-adv-x="1237" 
 />
    <glyph glyph-name="invbullet" unicode="&#x25d8;" horiz-adv-x="1237" 
 />
    <glyph glyph-name="invcircle" unicode="&#x25d9;" horiz-adv-x="1237" 
 />
    <glyph glyph-name="openbullet" unicode="&#x25e6;" horiz-adv-x="726" 
 />
    <glyph glyph-name="smileface" unicode="&#x263a;" horiz-adv-x="2091" 
 />
    <glyph glyph-name="invsmileface" unicode="&#x263b;" horiz-adv-x="2155" 
 />
    <glyph glyph-name="sun" unicode="&#x263c;" horiz-adv-x="1877" 
 />
    <glyph glyph-name="female" unicode="&#x2640;" horiz-adv-x="1536" 
 />
    <glyph glyph-name="male" unicode="&#x2642;" horiz-adv-x="1536" 
 />
    <glyph glyph-name="spade" unicode="&#x2660;" horiz-adv-x="1088" 
 />
    <glyph glyph-name="club" unicode="&#x2663;" horiz-adv-x="1344" 
 />
    <glyph glyph-name="heart" unicode="&#x2665;" horiz-adv-x="1216" 
 />
    <glyph glyph-name="diamond" unicode="&#x2666;" horiz-adv-x="1045" 
 />
    <glyph glyph-name="musicalnote" unicode="&#x266a;" horiz-adv-x="1024" 
 />
    <glyph glyph-name="musicalnotedbl" unicode="&#x266b;" horiz-adv-x="1536" 
 />
    <glyph glyph-name="uniF004" unicode="&#xf004;" horiz-adv-x="682" 
 />
    <glyph glyph-name="uniF005" unicode="&#xf005;" horiz-adv-x="682" 
 />
  </font>
</defs>
</svg>
